<svg width="335" height="129" viewBox="0 0 335 129" fill="none" xmlns="http://www.w3.org/2000/svg">
<path d="M38.5 64.5L1.5 128.5H100L80 88.5L68 64.5C57.2019 45.6793 50.7192 45.5729 38.5 64.5Z" fill="white"/>
<path d="M80 88.5L100 128.5H188L148.406 59.0001L141 46.0001C129.095 20.0585 121.734 18.4746 107 46.0001L80 88.5Z" fill="white"/>
<path d="M148.406 59.0001L188 128.5H287L235.5 49.1042L215 17.5C200.937 -3.83774 193.063 -4.96042 179 17.5L148.406 59.0001Z" fill="white"/>
<path d="M235.5 49.1042L287 128.5H333.5L278 30.0001C267.161 7.71779 260.754 6.17012 248.5 30.0001L235.5 49.1042Z" fill="white"/>
<path d="M1.5 128.5L38.5 64.5C50.7192 45.5729 57.2019 45.6793 68 64.5L80 88.5M1.5 128.5H333.5M1.5 128.5H100M100 128.5L80 88.5M100 128.5H188M80 88.5L107 46.0001C121.734 18.4746 129.095 20.0585 141 46.0001L148.406 59.0001M188 128.5L148.406 59.0001M188 128.5H287M148.406 59.0001L179 17.5C193.063 -4.96042 200.937 -3.83774 215 17.5L235.5 49.1042M287 128.5L235.5 49.1042M287 128.5H333.5M235.5 49.1042L248.5 30.0001C260.754 6.17012 267.161 7.71779 278 30.0001L333.5 128.5" stroke="white"/>
</svg>
